<svg width="92" height="92" viewBox="0 0 92 92" fill="none" xmlns="http://www.w3.org/2000/svg">
<circle cx="46" cy="46" r="46" fill="#D9DDEC"/>
<path d="M46.3807 68.6932H23.6233C22.2857 68.6899 20.9723 68.3355 19.8145 67.6656C18.6568 66.9956 17.6951 66.0335 17.0257 64.8753C16.3563 63.7172 16.0026 62.4037 16 61.066C15.9974 59.7284 16.3459 58.4135 17.0107 57.2527L28.3963 37.5339L39.7773 17.8151C40.4485 16.655 41.413 15.6917 42.5741 15.0221C43.7351 14.3525 45.0519 14 46.3922 14C47.7325 14 49.0492 14.3525 50.2103 15.0221C51.3713 15.6917 52.3358 16.655 53.0071 17.8151L64.3926 37.5339L75.7782 57.2527C76.4432 58.4138 76.7917 59.7291 76.7889 61.0672C76.7861 62.4052 76.432 63.7191 75.7621 64.8773C75.0921 66.0356 74.1298 66.9976 72.9714 67.6673C71.813 68.3369 70.4991 68.6907 69.161 68.6932H46.3807Z" fill="#3B82F6"/>
<path d="M70.8909 59.5138C70.8909 59.5138 70.9504 59.6282 71.0648 59.8661C71.2601 60.3429 71.3347 60.8605 71.282 61.373C71.2294 61.8855 71.051 62.377 70.7628 62.804C70.5362 63.1413 70.2455 63.4305 69.907 63.6552C69.5135 63.9057 69.0636 64.0536 68.5982 64.0854C64.7176 64.1266 59.1163 64.1174 52.188 64.1357L27.8518 64.1632H24.3739C23.7535 64.1565 23.1505 63.9574 22.6481 63.5935C22.1456 63.2295 21.7685 62.7187 21.5687 62.1313C21.3565 61.5446 21.3168 60.9094 21.4543 60.3009C21.4909 60.1499 21.5412 59.9988 21.5915 59.8432C21.6419 59.6877 21.7242 59.555 21.7929 59.4177L22.2505 58.6168C22.8363 57.5414 23.4312 56.4614 24.0261 55.3677L31.4029 41.8268L38.8255 28.295C40.0183 26.1075 41.1929 23.9613 42.3492 21.8563C42.642 21.3346 42.912 20.8083 43.2232 20.2912C43.5324 19.7629 43.9741 19.3244 44.5045 19.019C45.0244 18.7212 45.6078 18.5518 46.2064 18.5247C46.8049 18.4977 47.4012 18.6138 47.9458 18.8634C48.4861 19.1079 48.9577 19.482 49.3187 19.9526C49.6312 20.4273 49.914 20.9209 50.1653 21.4307C50.7007 22.41 51.2315 23.3756 51.7487 24.3274C52.792 26.2311 53.8003 28.0784 54.7735 29.8692C56.7276 33.4432 58.5443 36.7747 60.2009 39.8133C63.5141 45.895 66.1911 50.819 68.0445 54.2283L70.1678 58.1501C70.4058 58.6077 70.5888 58.9372 70.7124 59.1751C70.836 59.4131 70.8955 59.5275 70.8955 59.5275C70.8955 59.5275 70.8222 59.4131 70.6941 59.1843L70.1267 58.1729L67.9621 54.2694C66.095 50.8693 63.3859 45.9637 60.0544 39.8956L54.6042 29.9607L51.5656 24.4281C51.0439 23.4762 50.5177 22.5107 49.9777 21.5314C49.7258 21.037 49.4462 20.5573 49.1402 20.0944C48.8025 19.6551 48.3627 19.3048 47.8589 19.0739C47.3462 18.8386 46.7847 18.7291 46.2212 18.7545C45.6576 18.78 45.1083 18.9397 44.6189 19.2204C44.123 19.5104 43.71 19.9233 43.42 20.4193C43.118 20.9181 42.8434 21.4536 42.5551 21.9752L39.0314 28.414C36.6426 32.7888 34.1623 37.3146 31.6271 41.9549L24.2183 55.4867C23.6188 56.5804 23.0285 57.665 22.4381 58.7358C22.1165 59.2403 21.8626 59.785 21.6831 60.3558C21.5525 60.926 21.589 61.5218 21.7883 62.0719C21.9692 62.6168 22.3163 63.0914 22.7809 63.4288C23.2456 63.7661 23.8043 63.9494 24.3784 63.9527H27.8563L52.1925 63.9756L68.5982 63.9984C69.0477 63.9722 69.4835 63.8337 69.8658 63.5957C70.1992 63.3793 70.4869 63.0994 70.7124 62.772C71.0647 62.2538 71.2529 61.6414 71.2524 61.0148C71.247 60.4935 71.1234 59.9803 70.8909 59.5138Z" fill="#263238"/>
<path d="M42.6924 55.2953C42.6924 53.2772 44.3032 51.7716 46.5959 51.7716C48.8885 51.7716 50.4628 53.2772 50.4628 55.2953C50.4628 57.3134 48.8885 58.8876 46.5959 58.8876C44.3032 58.8876 42.6924 57.286 42.6924 55.2953ZM42.729 34.6246H50.4628L49.1631 49.8542H43.9966L42.729 34.6246Z" fill="white"/>
<path d="M47.4697 15.5372C47.0015 15.379 46.516 15.2776 46.0237 15.2352C44.8271 15.2094 43.659 15.601 42.7196 16.3426C41.8026 17.1072 41.0639 18.0631 40.5551 19.1432C40.1387 19.967 39.9419 20.5161 39.9053 20.4932C39.9177 20.358 39.9501 20.2254 40.0014 20.0997C40.1157 19.749 40.2502 19.4052 40.4041 19.07C40.8879 17.9363 41.6364 16.9352 42.5869 16.1504C43.566 15.3734 44.7992 14.9884 46.0465 15.0704C46.4202 15.0984 46.7867 15.188 47.1311 15.3358C47.3553 15.4411 47.4789 15.5235 47.4697 15.5372Z" fill="white"/>
<path d="M37.9512 23.9018C38.0452 23.507 38.2146 23.1341 38.45 22.8035C38.784 22.2406 39.0998 21.8105 39.1593 21.8425C39.0626 22.2316 38.8917 22.5983 38.6559 22.9225C38.4862 23.2912 38.2469 23.6238 37.9512 23.9018Z" fill="white"/>
</svg>
